<svg width="1289" height="1756" viewBox="0 0 1289 1756" fill="none" xmlns="http://www.w3.org/2000/svg">
<path d="M624.932 1753.66C452.211 1735.73 304.223 1615.73 252.075 1451.32C235.03 1397.58 232.552 1370.7 231.605 1229.32L230.747 1101.22L396.248 1101.44C535.903 1101.63 559.995 1102.32 550.518 1105.81C495.986 1125.91 435.709 1173.89 403.116 1223.15C362.402 1284.68 342.026 1366.04 349.822 1435.96C356.005 1491.41 373.107 1539.27 402.415 1583.14C444.163 1645.62 506.588 1691.41 581.557 1714.53C607.65 1722.58 613.369 1723.14 668.37 1723.14C723.486 1723.14 729.052 1722.59 755.428 1714.46C927.61 1661.39 1021.64 1493.41 976.957 1318.7C969.603 1289.95 946.796 1240.66 930.323 1217.92C894.065 1167.87 839.56 1125.47 786.165 1105.79C776.763 1102.32 801.106 1101.63 939.697 1101.44L1104.4 1101.22L1104.39 1229.32C1104.38 1326.56 1103.26 1364.35 1099.72 1386.17C1080.27 1506.05 1011.32 1614.5 912.385 1680.8C828.998 1736.69 722.205 1763.75 624.932 1753.66ZM781.448 1669.99C780.493 1664.38 778.445 1649.04 776.896 1635.92C774.539 1615.94 774.875 1611.42 778.959 1608.19C782.865 1605.1 785.192 1605.42 790.619 1609.78C842.164 1651.21 840.933 1649.99 834.242 1652.98C828.975 1655.33 824.039 1652.51 806.507 1637.12L785.18 1618.41L787.247 1633.53C788.384 1641.84 790.162 1654.89 791.198 1662.52C792.669 1673.34 791.995 1676.8 788.133 1678.28C784.459 1679.69 782.735 1677.56 781.448 1669.99ZM500.023 1648.96C490.248 1639.83 486.865 1629.55 493.635 1629.55C495.559 1629.55 501.146 1633.85 506.052 1639.1C520.518 1654.59 541.188 1649.28 546.025 1628.84C547.67 1621.88 546.167 1618.25 538.449 1610.53C533.153 1605.24 525.999 1600.91 522.551 1600.91C519.102 1600.91 515.383 1598.57 514.285 1595.7C512.569 1591.23 514.197 1590.76 525.88 1592.33C568.511 1598.04 566.92 1658.2 524.138 1658.2C512.827 1658.2 507.88 1656.3 500.023 1648.96ZM847.818 1628.94C846.53 1626.86 847.089 1624.61 849.062 1623.96C856.38 1621.52 868.882 1609.84 868.882 1605.45C868.882 1599.45 858.21 1599.68 846.102 1605.94C826.016 1616.33 809.57 1601.11 819.704 1581.51C825.151 1570.98 843.24 1560.74 851.087 1563.75C859.164 1566.85 857.005 1570.28 843.377 1576.01C829.765 1581.73 824.441 1589.57 830.235 1595.36C832.877 1598 836.746 1597.53 845.087 1593.55C859.679 1586.6 869.778 1586.74 876.345 1594C884.226 1602.7 882.792 1609.91 870.791 1621.91C859.584 1633.12 851.86 1635.48 847.818 1628.94ZM624.975 1615.46C560.005 1600.63 505.736 1558.72 477.613 1501.67C420.253 1385.3 476.686 1246.87 598.843 1204.29C632.802 1192.46 682.937 1190.31 718.048 1199.19C760.915 1210.03 783.961 1223.19 816.767 1255.56C841.071 1279.55 847.912 1288.64 858.674 1311.28C876.242 1348.23 882.979 1380.79 880.683 1417.63C873.713 1529.48 787.306 1614.51 676.327 1618.71C656.179 1619.48 637.336 1618.28 624.975 1615.46ZM563.341 1539.4C563.341 1537.08 566.727 1532 570.865 1528.11L578.389 1521.04L590.327 1528.09C605.847 1537.24 625.757 1537.31 641.11 1528.25L652.774 1521.37L660.572 1529.16C664.861 1533.45 668.37 1538.46 668.37 1540.29C668.37 1542.12 670.519 1543.62 673.144 1543.62C681.168 1543.62 678.51 1530.99 668.348 1520.83C663.084 1515.56 659.588 1509.94 660.579 1508.34C663.358 1503.84 673.744 1504.89 679.055 1510.2C684.126 1515.27 693.832 1516.71 693.832 1512.4C693.832 1506.14 684.678 1498.31 674.58 1495.93C665.363 1493.76 664.908 1493.29 671.749 1493.02C679.797 1492.7 693.832 1482.42 693.832 1476.84C693.832 1471.03 686.384 1469.6 682.655 1474.7C677.787 1481.36 665.188 1481.66 665.188 1475.12C665.188 1472.46 661.249 1468.6 656.435 1466.55C643.683 1461.11 636.543 1454.33 636.543 1447.64C636.543 1443.89 634.243 1441.77 630.178 1441.77C626.641 1441.77 623.812 1443.89 623.812 1446.54C623.812 1449.72 620.641 1451.32 614.364 1451.32C607.273 1451.32 605.373 1450.13 606.748 1446.54C607.978 1443.34 606.605 1441.77 602.572 1441.77C598.845 1441.77 595.222 1445.32 593.03 1451.13C590.735 1457.21 585.473 1462.17 578.01 1465.29C571.693 1467.93 566.523 1472.31 566.523 1475.03C566.523 1481.49 551.929 1481.62 549.459 1475.19C547.207 1469.32 537.879 1468.83 537.879 1474.58C537.879 1482.33 546.095 1490.04 557.131 1492.64C567.896 1495.17 567.93 1495.23 558.817 1495.55C548.777 1495.9 537.879 1503.78 537.879 1510.69C537.879 1516.25 544.226 1515.99 552.014 1510.1C565.62 1499.81 578.827 1507.79 565.517 1518.26C561.169 1521.68 556.111 1528.79 554.276 1534.05C551.312 1542.55 551.632 1543.62 557.141 1543.62C560.551 1543.62 563.341 1541.72 563.341 1539.4ZM596.167 1518.31C584.447 1511.17 580.689 1505.17 577.591 1488.66C575.836 1479.3 576.36 1476.78 580.062 1476.78C582.647 1476.78 588.403 1473.92 592.854 1470.41C604.147 1461.53 626.366 1461.9 640.962 1471.21C650.264 1477.14 652.211 1480.3 652.322 1489.6C652.653 1517.14 620.887 1533.39 596.167 1518.31ZM581.014 1457.5C585.454 1452.59 586.12 1449.64 583.667 1445.75C578.667 1437.82 572.889 1437.25 572.889 1444.69C572.889 1452.4 567.19 1453.58 564.446 1446.43C563.414 1443.73 564.891 1438.97 567.729 1435.83C574.104 1428.79 574.391 1422.67 568.346 1422.67C562.975 1422.67 550.61 1437.5 550.61 1443.94C550.61 1449.72 564.894 1464.05 570.66 1464.05C573.094 1464.05 577.753 1461.1 581.014 1457.5ZM674.338 1456.04C683.648 1447.21 675.384 1422.67 663.103 1422.67C657.294 1422.67 657.711 1428.9 663.983 1435.83C666.821 1438.97 668.298 1443.73 667.265 1446.43C664.567 1453.46 658.823 1452.46 658.823 1444.95C658.823 1437.74 655.522 1436.8 649.911 1442.41C644.698 1447.62 645.118 1453.07 651.201 1459.16C656.68 1464.64 666.69 1463.29 674.338 1456.04ZM720.752 1454.92C721.79 1451.65 725.495 1446.39 728.987 1443.23C735.12 1437.68 735.749 1437.72 747.639 1444.4C763.354 1453.23 784.201 1453.44 798.205 1444.9C810.565 1437.37 819.878 1440.4 823.04 1453C824.981 1460.73 837.054 1464.63 837.054 1457.53C837.054 1450.93 827.316 1435.53 821.019 1432.16C817.487 1430.27 815.438 1427.36 816.465 1425.7C819.487 1420.81 837.06 1422.17 839.086 1427.45C841.418 1433.53 849.785 1433.7 849.785 1427.68C849.785 1420.09 840.367 1413.14 829.666 1412.84L819.549 1412.55L830.689 1409.46C842.119 1406.28 849.785 1399.2 849.785 1391.83C849.785 1386.09 841.338 1386.57 839.086 1392.44C836.103 1400.21 821.765 1398.46 820.566 1390.18C819.923 1385.74 816.624 1382.47 811.593 1381.3C807.216 1380.28 800.771 1374.9 797.27 1369.35C790.553 1358.71 782.948 1355.76 782.948 1363.79C782.948 1366.98 779.766 1368.57 773.4 1368.57C767.035 1368.57 763.852 1366.98 763.852 1363.79C763.852 1361.14 761.023 1359.02 757.486 1359.02C753.421 1359.02 751.121 1361.14 751.121 1364.89C751.121 1371.87 742.505 1380.19 733.616 1381.78C730.115 1382.41 725.837 1386.14 724.109 1390.07C720.545 1398.17 710.472 1399.63 707.714 1392.44C705.83 1387.53 693.832 1385.63 693.832 1390.24C693.832 1396.11 703.362 1405.15 713.368 1408.77L724.068 1412.64L713.905 1412.88C704.595 1413.11 693.832 1422.15 693.832 1429.75C693.832 1434.29 705.854 1432.29 707.714 1427.45C709.694 1422.29 728.842 1420.62 728.842 1425.61C728.842 1427.23 724.545 1432.85 719.294 1438.1C709.297 1448.09 706.499 1460.87 714.305 1460.87C716.813 1460.87 719.714 1458.19 720.752 1454.92ZM758.818 1438.84C738.288 1430.07 726.982 1397 742.499 1391.1C746.51 1389.57 751.698 1386.03 754.029 1383.22C760.398 1375.55 786.704 1376.32 794.014 1384.4C797.142 1387.86 802.377 1391.53 805.647 1392.57C808.917 1393.61 811.593 1397.27 811.593 1400.71C811.593 1411.41 802.938 1428.31 794.69 1433.71C784.91 1440.12 767.614 1442.59 758.818 1438.84ZM565.547 1368.58C570.472 1355.53 577.535 1353.7 591.883 1361.76C607.112 1370.32 621.214 1370.39 638.552 1362C654.28 1354.39 663.795 1357.14 667.086 1370.25C668.172 1374.58 671.054 1378.12 673.49 1378.12C681.333 1378.12 678.243 1363.7 668.37 1354.25C663.119 1349.21 658.822 1343.93 658.822 1342.51C658.822 1337.7 680.339 1339.71 682.252 1344.7C684.529 1350.63 693.832 1351.03 693.832 1345.19C693.832 1339.25 683.549 1330.54 672.691 1327.28L663.596 1324.56L672.894 1324.28C682.918 1323.99 693.832 1316.12 693.832 1309.2C693.832 1303.35 682.226 1303.76 679.95 1309.69C677.311 1316.57 666.22 1315.57 664.315 1308.28C663.426 1304.89 657.581 1299.97 651.326 1297.36C643.807 1294.21 639.258 1289.84 637.903 1284.44C635.674 1275.56 623.812 1272.7 623.812 1281.04C623.812 1284.22 620.641 1285.82 614.364 1285.82C607.273 1285.82 605.373 1284.63 606.748 1281.04C610.412 1271.5 596.83 1276.03 592.506 1285.79C589.663 1292.22 585.008 1296.16 578.203 1297.92C571.29 1299.7 567.795 1302.71 567.098 1307.49C565.914 1315.61 556.559 1316.86 550.61 1309.69C545.904 1304.02 537.879 1303.36 537.879 1308.64C537.879 1315.9 548.545 1324.01 558.264 1324.15C568.111 1324.29 568.11 1324.29 555.702 1328.71C543.245 1333.15 538.018 1338.09 537.928 1345.49C537.859 1351.11 547.248 1350.46 549.459 1344.7C550.589 1341.75 555.427 1339.92 562.09 1339.92C574.277 1339.92 576.163 1344.31 566.254 1349.62C562.605 1351.57 557.592 1358.02 555.115 1363.95C549.405 1377.61 549.447 1378.12 556.278 1378.12C559.651 1378.12 563.403 1374.25 565.547 1368.58ZM607.899 1356.94C589.092 1350.75 581.084 1341.78 577.55 1322.94C575.63 1312.7 576.253 1311.05 583.019 1308.48C587.219 1306.88 592.562 1303.28 594.893 1300.47C601.394 1292.64 630.677 1293.49 638.135 1301.73C641.303 1305.23 645.822 1308.1 648.176 1308.1C651.024 1308.1 652.457 1312.22 652.457 1320.4C652.457 1335.21 643.101 1348.39 628.154 1354.63C617.055 1359.27 615.495 1359.45 607.899 1356.94ZM740.39 1369.66C741.967 1363.38 740.962 1360.07 736.472 1356.78C730.981 1352.74 730.289 1353.12 728.842 1360.95C727.394 1368.79 726.852 1369.08 722.833 1364.23C719.036 1359.65 719.147 1358.09 723.629 1353.14C734.035 1341.64 727.073 1334.78 715.566 1345.19C703.089 1356.48 712.096 1378.12 729.275 1378.12C736.355 1378.12 738.72 1376.32 740.39 1369.66ZM832.558 1370.18C838.913 1360.48 836.434 1347.88 827.196 1342.94C818.403 1338.23 815.956 1341.37 821.029 1350.85C825.245 1358.73 823.761 1368.57 818.356 1368.57C816.714 1368.57 816.12 1365.7 817.036 1362.2C819.147 1354.13 810.073 1353.43 805.655 1361.33C796.976 1376.83 822.659 1385.29 832.558 1370.18ZM582.314 1289.23C586.118 1282.12 583.926 1274.34 577.417 1271.84C574.265 1270.63 572.889 1272.46 572.889 1277.86C572.889 1283.45 571.554 1285.11 568.115 1283.79C565.489 1282.78 563.341 1279.2 563.341 1275.83C563.341 1272.46 565.489 1268.88 568.115 1267.87C574.934 1265.26 574.026 1257.17 566.913 1257.17C553.758 1257.17 547.869 1275.11 557.151 1286.91C565.025 1296.92 577.579 1298.08 582.314 1289.23ZM673.049 1289.11C683.376 1277.69 679.06 1259.88 665.083 1256.22C657.473 1254.23 656.099 1264.99 663.596 1267.87C666.222 1268.88 668.37 1271.72 668.37 1274.19C668.37 1276.65 666.222 1280.46 663.596 1282.63C659.559 1285.99 658.822 1285.31 658.822 1278.25C658.822 1267.72 653.433 1267.46 648.738 1277.77C641.725 1293.16 661.172 1302.23 673.049 1289.11ZM446.324 1603.29C444.041 1600.47 447.348 1589.82 457.687 1566.69C465.707 1548.75 473.271 1534.07 474.497 1534.07C478.771 1534.07 480.544 1544.12 477.329 1550.13C474.689 1555.06 476.202 1558.52 485.52 1568.83C495.286 1579.64 498.039 1581.07 504.437 1578.64C509.829 1576.59 512.984 1577.07 515.712 1580.35C518.675 1583.92 518.556 1585.27 515.163 1586.53C501.597 1591.57 453.594 1607.27 451.738 1607.27C450.531 1607.27 448.094 1605.48 446.324 1603.29ZM476.112 1589.41C485.114 1587.15 485.432 1585.59 478.818 1576.15C472.116 1566.58 469.942 1567.18 463.675 1580.33C457.041 1594.24 457.007 1595.72 463.381 1593.28C466.169 1592.21 471.898 1590.47 476.112 1589.41ZM878.43 1562.37C849.205 1557.72 846.645 1556.76 848.764 1551.24C850.146 1547.63 853.242 1546.7 859.562 1547.96C867.404 1549.53 869.368 1548.12 876.63 1535.73C883.703 1523.66 884.318 1520.59 881.083 1513.49C878.401 1507.6 878.308 1504.27 880.757 1501.82C885.066 1497.52 924.346 1554.58 921.743 1561.37C919.789 1566.46 906.131 1566.77 878.43 1562.37ZM901.755 1543.36L893.162 1530.38L887.462 1537.79C878.383 1549.61 880.112 1551.14 907.915 1555.93C909.253 1556.16 906.481 1550.51 901.755 1543.36ZM407.483 1550.16C404.813 1545.17 407.065 1540.75 420.417 1524.77L436.583 1505.42H412.549C391.444 1505.42 388.082 1504.62 384.963 1498.79C383.009 1495.14 381.884 1491.74 382.464 1491.23C385.597 1488.5 437.803 1467.23 441.367 1467.23C451.808 1467.23 443.846 1476.1 425.688 1484.69L405.796 1494.11L426.484 1495.16C437.862 1495.74 448.498 1497.54 450.12 1499.15C451.927 1500.95 447.924 1508.19 439.776 1517.86C432.466 1526.53 426.484 1534.42 426.484 1535.4C426.484 1536.37 434.642 1533.56 444.613 1529.15C461.768 1521.57 471.042 1520.85 471.042 1527.12C471.042 1528.66 465.671 1532.12 459.107 1534.8C452.542 1537.49 438.969 1543.4 428.944 1547.94C411.334 1555.92 410.607 1556 407.483 1550.16ZM913.411 1499.03C905.595 1490.66 903.396 1489.86 896.014 1492.66C884.012 1497.23 881.989 1496.72 883.852 1489.59C884.932 1485.46 889.283 1482.59 896.515 1481.24C904.204 1479.79 908.426 1476.82 910.487 1471.4C914.468 1460.93 914.682 1461.41 903.952 1456.9C897.151 1454.04 895.235 1451.69 897.189 1448.59C899.425 1445.05 905.278 1445.81 929.752 1452.85C946.162 1457.56 960.032 1461.86 960.573 1462.39C961.114 1462.93 959.226 1471.38 956.377 1481.18C948.16 1509.45 930.137 1516.93 913.411 1499.03ZM943.939 1484.6C949.6 1471.05 948.482 1468.67 935.2 1466.01C923.392 1463.65 919.926 1467.22 919.854 1481.82C919.8 1493.61 921.692 1495.88 931.637 1495.88C937.32 1495.88 940.41 1493.04 943.939 1484.6ZM374.321 1450.92C373.464 1446.76 371.895 1435.73 370.835 1426.39C369.112 1411.23 369.516 1409.54 374.621 1410.51C378.934 1411.32 380.725 1415.48 381.926 1427.48C383.401 1442.2 384.192 1443.44 392.744 1444.41L401.97 1445.47L400.087 1429.57C398.687 1417.75 399.314 1413.24 402.532 1412.01C407.817 1409.98 410.57 1416.45 410.57 1430.89C410.57 1440.9 411.35 1441.77 420.277 1441.77H429.983L427.822 1422.67C425.996 1406.54 426.435 1403.58 430.652 1403.58C434.215 1403.58 436.188 1407.9 437.552 1418.7C438.603 1427.01 440.058 1437.61 440.785 1442.24C442.284 1451.79 440.142 1452.51 398.795 1456.35C376.481 1458.42 375.839 1458.28 374.321 1450.92ZM140.092 1447.23C130.321 1442.28 124.56 1427.76 129.337 1420.12C135.71 1409.92 148.088 1405.06 157.16 1409.19C172.111 1416 172.311 1440.83 157.471 1447.59C147.701 1452.04 149.693 1452.08 140.092 1447.23ZM155.953 1428.89C155.953 1421.7 151.798 1418.84 145.101 1421.41C139.191 1423.68 138.536 1429.45 143.61 1434.52C148.5 1439.41 155.953 1436.01 155.953 1428.89ZM900.709 1432.36C900.709 1429.02 903.573 1425.38 907.074 1424.27C912.404 1422.57 913.44 1419.45 913.44 1405.07C913.44 1391.15 912.233 1387.24 907.074 1384.48C903.573 1382.61 900.709 1378.37 900.709 1375.05C900.709 1369.67 903.846 1370.45 930.149 1382.36C946.341 1389.69 961.459 1396.88 963.744 1398.34C972.206 1403.73 965.291 1410.63 940.493 1421.53C899.287 1439.64 900.709 1439.26 900.709 1432.36ZM948.449 1406.12C951.773 1405.06 950.129 1403 943.038 1399.32C928.52 1391.78 926.17 1392.61 926.17 1405.25C926.17 1416.44 926.188 1416.46 934.923 1412.05C939.737 1409.62 945.824 1406.95 948.449 1406.12ZM1162.44 1348.68C1164 1267.09 1167.09 1250.52 1186.47 1219.78C1193.01 1209.41 1196.67 1198.65 1198.12 1185.56C1204.61 1126.76 1225.43 1102.61 1271.5 1100.39L1287.41 1099.63L1288.36 1119.75C1289.42 1142.07 1282.49 1170.77 1272.73 1184.47C1263.42 1197.54 1248.28 1205.39 1224.36 1209.56C1204.71 1212.98 1201.96 1214.42 1195.02 1224.91C1178.93 1249.22 1173.75 1271.25 1172.07 1322.42L1170.5 1370.16L1177.24 1361.7C1181.73 1356.05 1183.99 1348.65 1184.02 1339.42C1184.09 1318.74 1191.65 1290.54 1200.85 1276.64C1211.38 1260.74 1230.92 1251.27 1255.59 1250.11L1274.68 1249.22L1274.33 1273.32C1274.13 1286.58 1271.54 1304.75 1268.57 1313.7C1259.54 1340.89 1233.79 1358.95 1203.99 1359C1187.12 1359.03 1178.56 1372.8 1172.82 1409.15C1171.39 1418.18 1169.08 1422.67 1165.85 1422.67C1161.63 1422.67 1161.2 1413.33 1162.44 1348.68ZM1219.78 1346.33C1227.76 1346.27 1226.65 1341.01 1218.18 1338.79C1213.3 1337.51 1209 1339.04 1204.66 1343.6L1198.29 1350.29L1206.25 1348.33C1210.63 1347.26 1216.71 1346.36 1219.78 1346.33ZM1200.85 1317.14C1198.74 1306.84 1198.6 1306.76 1196.41 1314.46C1195.17 1318.84 1194.01 1326.68 1193.84 1331.88C1193.52 1341.16 1193.61 1341.21 1198.27 1334.56C1201.52 1329.92 1202.33 1324.4 1200.85 1317.14ZM1246.8 1331.27C1248.51 1326.12 1225.67 1319.23 1221.31 1323.59C1218.84 1326.06 1220.95 1328.37 1228.77 1331.75C1240.53 1336.85 1244.98 1336.73 1246.8 1331.27ZM1215.28 1300.74C1213.51 1295.16 1211.37 1288.44 1210.53 1285.82C1209.19 1281.63 1208.66 1281.66 1206.22 1286C1204.57 1288.93 1204.83 1296.45 1206.83 1304.36C1209.49 1314.81 1211.14 1317 1214.37 1314.32C1217.5 1311.73 1217.72 1308.39 1215.28 1300.74ZM1257.17 1313.57C1257.17 1307.13 1239.12 1301.42 1234.88 1306.52C1232.25 1309.69 1233.53 1311.42 1240.33 1313.9C1252.68 1318.41 1257.17 1318.32 1257.17 1313.57ZM1228.26 1281.54C1223.73 1265.14 1217.6 1266.36 1220.28 1283.13C1222.92 1299.62 1225.44 1303.95 1228.85 1297.86C1230.29 1295.28 1230.03 1287.94 1228.26 1281.54ZM1263.54 1294.11C1263.54 1288.23 1253.83 1284.71 1249.51 1289.03C1247.07 1291.47 1247.45 1293.31 1250.83 1295.45C1257.74 1299.82 1263.54 1299.21 1263.54 1294.11ZM1244.44 1274.87C1244.44 1267.24 1239.37 1261.19 1235.89 1264.66C1233.18 1267.37 1237.79 1282.63 1241.32 1282.63C1243.04 1282.63 1244.44 1279.14 1244.44 1274.87ZM1266.72 1274.49C1266.72 1271.76 1265.27 1270.43 1263.49 1271.53C1261.71 1272.63 1261.08 1274.86 1262.08 1276.49C1264.81 1280.9 1266.72 1280.08 1266.72 1274.49ZM1257.17 1263.54C1257.17 1261.79 1255.74 1260.36 1253.99 1260.36C1252.24 1260.36 1250.81 1261.79 1250.81 1263.54C1250.81 1265.29 1252.24 1266.72 1253.99 1266.72C1255.74 1266.72 1257.17 1265.29 1257.17 1263.54ZM1234.89 1196.83L1242.85 1194.41L1233.89 1190.78C1222.44 1186.14 1222.98 1186.05 1218.98 1193.52C1216.15 1198.8 1216.54 1199.83 1221.26 1199.57C1224.38 1199.39 1230.52 1198.16 1234.89 1196.83ZM1216.55 1172.7C1214.55 1162.22 1209.44 1159.34 1209.39 1168.67C1209.36 1172.71 1208.42 1179.59 1207.3 1183.97C1205.3 1191.72 1205.41 1191.78 1211.66 1186.28C1215.97 1182.48 1217.57 1178.04 1216.55 1172.7ZM1259.51 1181.75C1260.51 1178.74 1244.88 1171.24 1237.6 1171.24C1231.09 1171.24 1235.7 1180.55 1243.65 1183.44C1253.65 1187.08 1257.88 1186.63 1259.51 1181.75ZM1271.34 1162.3C1269.67 1160.88 1264.49 1158.1 1259.83 1156.12C1252.92 1153.19 1251 1153.41 1249.52 1157.28C1247.29 1163.09 1266.61 1172.44 1271.34 1167.83C1273.25 1165.96 1273.25 1163.92 1271.34 1162.3ZM1227.69 1147.23C1222.57 1129.67 1217.06 1132.98 1220.55 1151.53C1223.3 1166.22 1225.25 1169.42 1229.11 1165.57C1231.04 1163.64 1230.52 1156.96 1227.69 1147.23ZM1244.44 1142.61C1244.44 1131.77 1238.13 1118.99 1234.54 1122.58C1232.27 1124.85 1232.35 1129.98 1234.81 1139.1C1238.31 1152.1 1244.44 1154.34 1244.44 1142.61ZM1279.45 1145.89C1279.45 1139.89 1267.66 1136.04 1263.74 1140.76C1260.96 1144.11 1261.08 1145.55 1264.2 1146.81C1271.19 1149.61 1279.45 1149.12 1279.45 1145.89ZM1257.41 1128.99C1257.28 1127.72 1257.17 1123.82 1257.17 1120.32C1257.17 1116.59 1255.05 1113.95 1252.06 1113.95C1248.7 1113.95 1247.61 1115.68 1248.88 1118.99C1249.94 1121.75 1250.81 1126.17 1250.81 1128.8C1250.81 1131.43 1252.35 1133.06 1254.23 1132.44C1256.11 1131.81 1257.54 1130.26 1257.41 1128.99ZM1271.5 1113.95C1272.58 1112.2 1271.95 1110.77 1270.09 1110.77C1268.24 1110.77 1266.72 1112.2 1266.72 1113.95C1266.72 1115.7 1267.35 1117.13 1268.12 1117.13C1268.9 1117.13 1270.41 1115.7 1271.5 1113.95ZM1179.2 1419.49C1176.53 1415.18 1180.13 1409.94 1185.75 1409.94C1188.27 1409.94 1190.34 1412.81 1190.34 1416.31C1190.34 1422.9 1182.66 1425.09 1179.2 1419.49ZM1196.7 1416.31C1196.7 1411.52 1198.36 1409.8 1202.27 1410.55C1205.33 1411.14 1207.84 1413.73 1207.84 1416.31C1207.84 1418.89 1205.33 1421.48 1202.27 1422.07C1198.36 1422.82 1196.7 1421.1 1196.7 1416.31ZM1188.22 1401.77C1185.57 1394.86 1192.3 1388.36 1197.12 1393.18C1201.2 1397.25 1198.67 1406.76 1193.52 1406.76C1191.66 1406.76 1189.27 1404.52 1188.22 1401.77ZM88.018 1397.76C85.1209 1394.56 82.7506 1388.36 82.7506 1383.99C82.7506 1374.37 94.8654 1362.2 104.439 1362.2C120.983 1362.2 130.582 1387.2 118.306 1398.31C110.58 1405.3 94.5812 1405.01 88.018 1397.76ZM110.768 1383.31C109.604 1375.19 99.4206 1372.44 96.7072 1379.51C94.1901 1386.07 100.963 1394.17 107.022 1391.84C109.629 1390.84 111.301 1387.04 110.768 1383.31ZM132.263 1396.5C125.28 1386.53 126.104 1377.17 134.675 1369.12C143.371 1360.95 151.868 1360.33 161.61 1367.16C170.112 1373.11 171.29 1390.97 163.683 1398.58C156.076 1406.18 138.218 1405.01 132.263 1396.5ZM155.379 1383.69C154.711 1378.99 152.174 1376.52 147.996 1376.52C143.818 1376.52 141.281 1378.99 140.614 1383.69C139.78 1389.56 141.106 1390.85 147.996 1390.85C154.886 1390.85 156.213 1389.56 155.379 1383.69ZM401.818 1388.57C373.276 1383.95 372.38 1383.55 372.454 1375.39C372.589 1360.4 378.255 1341.79 383.951 1337.62C393.108 1330.93 406.929 1332.74 415.256 1341.72C422.565 1349.61 423.153 1349.71 432.609 1344.82C437.993 1342.04 442.398 1338.93 442.398 1337.92C442.398 1336.91 432.294 1324.64 419.944 1310.64C407.279 1296.29 397.931 1282.91 398.499 1279.94C399.358 1275.46 405.116 1274.54 437.247 1273.78C470.894 1272.98 474.772 1273.44 473.014 1278.02C471.929 1280.84 471.042 1283.75 471.042 1284.49C471.042 1285.22 466.812 1285.82 461.643 1285.82C453.517 1285.82 451.356 1287.82 445.687 1300.64C439.695 1314.19 439.563 1315.94 444.155 1321.01C448.333 1325.63 448.587 1328.76 445.663 1339.62C442.857 1350.04 439.924 1353.6 431.133 1357.28C421.981 1361.1 420.119 1363.52 420.119 1371.59C420.119 1380.33 421.105 1381.3 430.007 1381.3C437.717 1381.3 439.47 1382.41 437.964 1386.33C436.901 1389.1 436.032 1391.97 436.032 1392.7C436.032 1393.43 434.958 1393.87 433.645 1393.68C432.332 1393.49 418.01 1391.19 401.818 1388.57ZM409.948 1362.96C410.717 1352.57 409.618 1349.19 404.609 1346.51C395.257 1341.5 388.812 1345.49 385.189 1358.54C380.741 1374.55 380.67 1374.38 392.27 1375.79C407.98 1377.7 408.905 1377.02 409.948 1362.96ZM435.64 1296.55C437.737 1291.94 438.988 1287.71 438.419 1287.14C437.85 1286.57 431.002 1285.09 423.2 1283.84L409.016 1281.57L418.546 1293.01C423.787 1299.31 428.92 1304.56 429.952 1304.68C430.983 1304.81 433.543 1301.15 435.64 1296.55ZM894.365 1347.92C886.197 1331.05 887.71 1318.78 899.397 1307.09C912.463 1294.03 931.53 1294.07 946.039 1307.2C957.503 1317.58 960.262 1349.47 949.696 1349.47C946.579 1349.47 945.267 1345.3 945.267 1335.38C945.267 1323.95 943.684 1320.04 936.881 1314.69C932.268 1311.06 926.017 1308.1 922.988 1308.1C912.913 1308.1 900.709 1320.54 900.709 1330.82C900.709 1347.13 905.504 1352.51 918.218 1350.45C932.966 1348.05 934.089 1357.28 919.407 1360.21C903.008 1363.49 901.556 1362.78 894.365 1347.92ZM43.46 1353.2C31.8687 1340.39 41.734 1317.64 58.8803 1317.64C76.3083 1317.64 86.4444 1342.26 73.7476 1353.75C66.0222 1360.74 50.0232 1360.45 43.46 1353.2ZM65.2457 1338.33C65.2457 1328.85 52.8217 1329.8 51.4644 1339.38C50.5904 1345.55 51.6592 1346.62 57.8298 1345.75C62.7737 1345.05 65.2457 1342.58 65.2457 1338.33ZM87.7052 1351.95C77.4261 1337.27 86.428 1317.64 103.438 1317.64C120.866 1317.64 131.002 1342.26 118.306 1353.75C109.771 1361.48 93.7167 1360.53 87.7052 1351.95ZM111.395 1339.82C111.395 1332.32 102.978 1327.97 98.0277 1332.92C93.0771 1337.87 97.423 1346.29 104.93 1346.29C109.307 1346.29 111.395 1344.2 111.395 1339.82ZM132.263 1351.95C125.28 1341.98 126.104 1332.62 134.675 1324.56C143.371 1316.39 151.868 1315.77 161.61 1322.6C170.528 1328.85 171.225 1346.19 162.864 1353.75C154.329 1361.48 138.275 1360.53 132.263 1351.95ZM155.953 1339.82C155.953 1332.32 147.536 1327.97 142.586 1332.92C137.635 1337.87 141.981 1346.29 149.488 1346.29C153.865 1346.29 155.953 1344.2 155.953 1339.82ZM43.46 1308.64C31.8687 1295.83 41.734 1273.09 58.8803 1273.09C76.3083 1273.09 86.4444 1297.7 73.7476 1309.19C66.0222 1316.19 50.0232 1315.89 43.46 1308.64ZM66.24 1294.52C67.5067 1287.95 58.3189 1283.51 53.4696 1288.36C48.6204 1293.21 53.0524 1302.4 59.6297 1301.13C62.6783 1300.55 65.6529 1297.57 66.24 1294.52ZM87.7052 1307.39C77.4261 1292.71 86.428 1273.09 103.438 1273.09C120.866 1273.09 131.002 1297.7 118.306 1309.19C109.771 1316.92 93.7167 1315.97 87.7052 1307.39ZM110.798 1294.52C112.065 1287.95 102.877 1283.51 98.0277 1288.36C93.1785 1293.21 97.6105 1302.4 104.188 1301.13C107.236 1300.55 110.211 1297.57 110.798 1294.52ZM132.263 1307.39C125.505 1297.74 126.044 1287.08 133.674 1279.45C146.737 1266.39 168.684 1275.17 168.684 1293.46C168.684 1306.39 160.403 1314.46 147.13 1314.46C140.495 1314.46 135.58 1312.12 132.263 1307.39ZM155.953 1295.27C155.953 1287.76 147.536 1283.41 142.586 1288.36C137.635 1293.31 141.981 1301.73 149.488 1301.73C153.865 1301.73 155.953 1299.64 155.953 1295.27ZM871.252 1294.57C869.282 1288.73 926.244 1259.14 930.712 1263.68C935.043 1268.08 928.539 1273.16 899.993 1287.67C876.408 1299.66 873.226 1300.42 871.252 1294.57ZM43.46 1264.08C31.8687 1251.28 41.734 1228.53 58.8803 1228.53C76.3083 1228.53 86.4444 1253.15 73.7476 1264.64C66.0222 1271.63 50.0232 1271.34 43.46 1264.08ZM66.8371 1250.71C66.8371 1243.2 58.4202 1238.85 53.4696 1243.81C48.5191 1248.76 52.865 1257.17 60.3717 1257.17C64.7485 1257.17 66.8371 1255.08 66.8371 1250.71ZM87.7052 1262.83C80.9473 1253.18 81.4855 1242.52 89.1161 1234.89C102.179 1221.83 124.126 1230.61 124.126 1248.9C124.126 1261.84 115.845 1269.9 102.572 1269.9C95.9369 1269.9 91.0218 1267.57 87.7052 1262.83ZM110.798 1249.97C112.065 1243.39 102.877 1238.96 98.0277 1243.81C93.1785 1248.65 97.6105 1257.84 104.188 1256.58C107.236 1255.99 110.211 1253.01 110.798 1249.97ZM132.263 1262.83C125.505 1253.18 126.044 1242.52 133.674 1234.89C146.737 1221.83 168.684 1230.61 168.684 1248.9C168.684 1261.84 160.403 1269.9 147.13 1269.9C140.495 1269.9 135.58 1267.57 132.263 1262.83ZM155.953 1250.71C155.953 1243.2 147.536 1238.85 142.586 1243.81C137.635 1248.76 141.981 1257.17 149.488 1257.17C153.865 1257.17 155.953 1255.08 155.953 1250.71ZM1192.79 1246.96C1190.52 1240.79 1193.44 1234.89 1198.78 1234.89C1201.82 1234.89 1203.15 1237.36 1202.49 1241.81C1201.33 1249.73 1195.04 1253.08 1192.79 1246.96ZM1209.43 1244.21C1209.43 1236.05 1219.97 1236.98 1221.56 1245.27C1222.3 1249.09 1220.59 1250.81 1216.03 1250.81C1211.48 1250.81 1209.43 1248.76 1209.43 1244.21ZM1205.26 1232.85C1204.06 1231.64 1203.07 1228.02 1203.07 1224.82C1203.07 1218.47 1210.92 1216.84 1214.4 1222.47C1216.91 1226.54 1208.51 1236.1 1205.26 1232.85ZM87.7052 1218.27C77.4261 1203.6 86.428 1183.97 103.438 1183.97C120.866 1183.97 131.002 1208.59 118.306 1220.08C109.771 1227.8 93.7167 1226.85 87.7052 1218.27ZM110.798 1205.41C112.065 1198.83 102.877 1194.4 98.0277 1199.25C93.1785 1204.1 97.6105 1213.28 104.188 1212.02C107.236 1211.43 110.211 1208.46 110.798 1205.41ZM132.263 1218.27C125.505 1208.62 126.044 1197.97 133.674 1190.34C146.737 1177.27 168.684 1186.05 168.684 1204.35C168.684 1217.28 160.403 1225.35 147.13 1225.35C140.495 1225.35 135.58 1223.01 132.263 1218.27ZM155.953 1206.15C155.953 1198.64 147.536 1194.3 142.586 1199.25C137.635 1204.2 141.981 1212.61 149.488 1212.61C153.865 1212.61 155.953 1210.53 155.953 1206.15ZM1169.56 1215.66C1167.02 1211.55 1174.09 1202.49 1177.97 1204.88C1179.52 1205.84 1180.79 1209.41 1180.79 1212.8C1180.79 1219.33 1173.05 1221.3 1169.56 1215.66ZM1180.79 1196.7C1180.79 1192.46 1182.91 1190.34 1187.15 1190.34C1191.4 1190.34 1193.52 1192.46 1193.52 1196.7C1193.52 1200.94 1191.4 1203.07 1187.15 1203.07C1182.91 1203.07 1180.79 1200.94 1180.79 1196.7ZM1165.94 1194.9C1163.29 1187.98 1170.02 1181.48 1174.84 1186.3C1178.92 1190.38 1176.4 1199.88 1171.24 1199.88C1169.38 1199.88 1167 1197.64 1165.94 1194.9ZM751.716 1184.77C750.169 1181.7 745.552 1169.51 741.455 1157.68C737.357 1145.84 733.002 1137.25 731.776 1138.58C730.55 1139.91 727.2 1149.24 724.331 1159.3C721.017 1170.93 717.408 1177.61 714.431 1177.61C711.854 1177.61 709.746 1175.31 709.746 1172.5C709.746 1167.96 725.247 1113.69 727.17 1111.49C727.589 1111.01 730.224 1111.5 733.026 1112.57C735.828 1113.65 742.12 1125.85 747.008 1139.69C751.896 1153.53 756.743 1164.86 757.778 1164.87C758.814 1164.87 762.263 1156.28 765.443 1145.78C769.933 1130.95 772.611 1126.68 777.427 1126.68C781.073 1126.68 783.006 1128.32 782.118 1130.66C781.287 1132.85 776.791 1147.17 772.127 1162.49C763.619 1190.43 757.788 1196.79 751.716 1184.77ZM70.0197 1180.87C70.0197 1179.12 65.8578 1178.6 60.4716 1179.67C53.1235 1181.14 50.9235 1180.44 50.9235 1176.61C50.9235 1173.33 47.4081 1171.3 40.5797 1170.65C34.8905 1170.1 30.5305 1168.05 30.8907 1166.09C31.2508 1164.14 28.0283 1159.23 23.7295 1155.19C13.8334 1145.9 13.8672 1140.9 23.8704 1134.35C28.2466 1131.48 31.8272 1127.11 31.8272 1124.64C31.8272 1122.18 36.1238 1119.3 41.3753 1118.25C46.6268 1117.2 50.9235 1114.92 50.9235 1113.19C50.9235 1111.46 55.2201 1110.68 60.4716 1111.45C65.7231 1112.22 70.0197 1111.66 70.0197 1110.22C70.0197 1108.77 72.9944 1107.59 76.63 1107.59C85.3369 1107.59 101.847 1124.32 101.847 1133.15C101.847 1139.13 103.065 1139.8 110.599 1137.95C125.112 1134.38 134.178 1126.7 139.315 1113.63C142.531 1105.44 146.188 1101.22 150.07 1101.22C155.451 1101.22 155.953 1104.34 155.953 1137.82C155.953 1172.3 155.584 1174.42 149.588 1174.42C143.933 1174.42 143.222 1172.3 143.222 1155.42V1136.41L128.426 1144.28C120.288 1148.6 111.266 1152.14 108.378 1152.14C105.262 1152.14 101.483 1156.69 99.0865 1163.31C94.2336 1176.73 70.0197 1191.36 70.0197 1180.87ZM583.092 1154.12C572.229 1139.45 563.341 1126.56 563.341 1125.48C563.341 1124.39 566.048 1123.5 569.356 1123.5C573.205 1123.5 580.37 1130.91 589.248 1144.09C596.88 1155.41 604.004 1164.72 605.079 1164.77C607.241 1164.89 611.082 1140.37 611.082 1126.46C611.082 1118.15 619.566 1105.46 622.9 1108.79C624.455 1110.35 618.28 1165.25 615.429 1175.22C612.153 1186.67 602.567 1180.42 583.092 1154.12ZM635.636 1168.85C636.778 1165.79 643.103 1151.11 649.693 1136.23C666.481 1098.32 670.899 1098.84 689.414 1140.91C697.095 1158.37 703.38 1173.05 703.38 1173.54C703.38 1174.02 700.746 1174.42 697.526 1174.42C694.306 1174.42 690.04 1170.84 688.046 1166.47C684.876 1159.51 682.402 1158.51 668.37 1158.51C654.339 1158.51 651.864 1159.51 648.695 1166.47C644.496 1175.68 632.257 1177.92 635.636 1168.85ZM675.588 1136.23C672.838 1129.23 669.373 1123.5 667.888 1123.5C666.403 1123.5 665.188 1124.04 665.188 1124.7C665.188 1125.36 663.02 1131.09 660.371 1137.43L655.554 1148.96H668.072H680.589L675.588 1136.23ZM456.947 1070.76C449.721 1063.53 450.515 1053.48 458.311 1053.48C462.616 1053.48 464.677 1055.6 464.677 1060.03C464.677 1063.64 466.109 1065.7 467.859 1064.62C473.269 1061.28 471.432 1054.84 461.494 1042.34C456.242 1035.73 451.946 1027.04 451.946 1023.03C451.946 1014.95 459.578 1005.74 466.268 1005.74C472.567 1005.74 480.59 1014.78 480.59 1021.88C480.59 1025.26 478.442 1028.02 475.816 1028.02C473.19 1028.02 471.042 1025.95 471.042 1023.43C471.042 1016.97 465.694 1014.41 463.599 1019.87C462.64 1022.37 466.07 1029.72 471.223 1036.2C482.472 1050.36 483.977 1067.36 474.434 1072.46C466.07 1076.94 462.812 1076.62 456.947 1070.76ZM769.422 1072.32C764.772 1069.61 763.852 1064.36 763.852 1040.52C763.852 1012.81 764.098 1011.86 772.182 1008.17C779.535 1004.82 781.217 1005.24 786.505 1011.78C794.307 1021.41 794.975 1058.07 787.542 1068.68C782.121 1076.42 777.916 1077.27 769.422 1072.32ZM779.766 1040.56C779.766 1024.27 778.604 1015.63 776.583 1016.88C770.815 1020.44 772.784 1066.21 778.705 1066.21C779.288 1066.21 779.766 1054.67 779.766 1040.56ZM989.029 1072.32C982.394 1068.46 981.466 1053.48 987.862 1053.48C990.284 1053.48 993.232 1056.7 994.413 1060.64C996.5 1067.6 996.64 1067.62 999.335 1061.44C1003.18 1052.61 1003.08 1043.22 999.082 1037.57C996.541 1033.97 995.306 1033.78 994.091 1036.77C993.204 1038.96 990.448 1040.75 987.968 1040.75C984.68 1040.75 983.459 1036.44 983.459 1024.83V1008.92H997.782C1005.66 1008.92 1012.1 1010.35 1012.1 1012.1C1012.1 1013.85 1007.81 1015.29 1002.56 1015.29C995.18 1015.29 993.008 1016.71 993.008 1021.55C993.008 1026.06 994.477 1027.25 998.242 1025.81C1011.64 1020.67 1017.92 1057.21 1005.74 1069.39C998.545 1076.59 996.86 1076.88 989.029 1072.32ZM1033.59 1072.32C1026.69 1068.3 1025.86 1050.3 1032.57 1050.3C1035.07 1050.3 1037.58 1053.16 1038.14 1056.66C1039.59 1065.75 1045.34 1064.72 1046.53 1055.15C1047.17 1050.06 1045.7 1046.37 1042.55 1045.16C1036.85 1042.98 1035.85 1035.48 1041.03 1033.76C1042.94 1033.12 1043.85 1028.37 1043.07 1023.15C1041.73 1014.27 1041.5 1014.13 1039.23 1020.86C1036.29 1029.61 1028.02 1030.36 1028.02 1021.88C1028.02 1015.04 1035.99 1005.71 1041.77 1005.79C1052.48 1005.93 1058.56 1019.44 1053.68 1032.26C1051.68 1037.53 1051.65 1041.21 1053.6 1042.41C1058.49 1045.44 1057.14 1065.28 1051.66 1070.76C1045.91 1076.51 1041.44 1076.9 1033.59 1072.32ZM1078.15 1072.32C1071.51 1068.46 1070.58 1053.48 1076.98 1053.48C1079.4 1053.48 1082.26 1056.7 1083.34 1060.64C1084.98 1066.61 1085.83 1067.01 1088.44 1063.03C1090.16 1060.4 1091.6 1053.68 1091.62 1048.1C1091.68 1037.66 1087.29 1031.77 1083.75 1037.51C1082.65 1039.29 1079.68 1040.75 1077.16 1040.75C1073.78 1040.75 1072.58 1036.57 1072.58 1024.83V1008.92H1086.9C1102.43 1008.92 1106.71 1014.23 1092.49 1015.87C1087.24 1016.48 1083.35 1019.09 1082.72 1022.44C1081.96 1026.39 1083.11 1027.44 1086.71 1026.06C1095.46 1022.7 1101.22 1030.93 1101.22 1046.8C1101.22 1061.78 1094.54 1075.84 1087.51 1075.66C1085.42 1075.61 1081.21 1074.1 1078.15 1072.32ZM232.338 1064.86C232.338 1060.62 235.723 1053.1 239.86 1048.15C248.861 1037.39 252.301 1027.61 249.582 1020.53C246.813 1013.31 241.886 1017.21 241.886 1026.61C241.886 1031.4 240.052 1034.38 237.112 1034.38C230.638 1034.38 230.802 1017.28 237.34 1010.74C247.782 1000.3 260.983 1008.93 260.983 1026.21C260.983 1032.13 257.524 1041.77 253.026 1048.4C248.65 1054.85 245.069 1061.5 245.069 1063.17C245.069 1064.84 248.65 1066.21 253.026 1066.21C257.402 1066.21 260.983 1067.64 260.983 1069.39C260.983 1071.14 254.538 1072.58 246.661 1072.58C233.626 1072.58 232.338 1071.88 232.338 1064.86ZM280.117 1065.41C280.155 1058.3 286.815 1031.53 291.202 1020.86C293.093 1016.26 291.77 1015.29 283.602 1015.29C278.164 1015.29 273.714 1013.85 273.714 1012.1C273.714 1010.35 280.159 1008.92 288.036 1008.92C304.64 1008.92 304.702 1009.14 295.952 1037.05C292.473 1048.15 289.627 1060.68 289.627 1064.9C289.627 1069.6 287.777 1072.58 284.853 1072.58C282.013 1072.58 280.094 1069.67 280.117 1065.41ZM343.733 1040.75V1008.92H354.236C369.762 1008.92 372.378 1013.51 372.378 1040.75C372.378 1067.99 369.762 1072.58 354.236 1072.58H343.733V1040.75ZM362.83 1040.75C362.83 1028.02 361.466 1018.47 359.647 1018.47C357.828 1018.47 356.464 1028.02 356.464 1040.75C356.464 1053.48 357.828 1063.03 359.647 1063.03C361.466 1063.03 362.83 1053.48 362.83 1040.75ZM388.291 1040.75V1008.92H401.022C414.291 1008.92 418.51 1014.64 407.388 1017.55C399.537 1019.6 398.109 1037.57 405.796 1037.57C408.422 1037.57 410.57 1039 410.57 1040.75C410.57 1042.5 408.422 1043.93 405.796 1043.93C398.109 1043.93 399.537 1061.9 407.388 1063.95C418.51 1066.86 414.291 1072.58 401.022 1072.58H388.291V1040.75ZM496.504 1040.75V1008.92H507.643C515.423 1008.92 518.783 1010.36 518.783 1013.69C518.783 1016.35 515.954 1018.47 512.417 1018.47C507.688 1018.47 506.052 1020.59 506.052 1026.72C506.052 1032.3 508.116 1035.52 512.417 1036.64C515.918 1037.56 518.783 1039.41 518.783 1040.75C518.783 1042.09 515.918 1043.94 512.417 1044.85C508.116 1045.98 506.052 1049.19 506.052 1054.77C506.052 1060.91 507.688 1063.03 512.417 1063.03C515.954 1063.03 518.783 1065.15 518.783 1067.8C518.783 1071.14 515.423 1072.58 507.643 1072.58H496.504V1040.75ZM541.062 1045.52C541.062 1023.6 540.157 1018.47 536.288 1018.47C533.662 1018.47 531.514 1016.32 531.514 1013.69C531.514 1010.09 535.404 1008.92 547.427 1008.92C563.434 1008.92 569.389 1014.3 556.975 1017.55C551.248 1019.04 550.61 1021.89 550.61 1045.89C550.61 1067.49 549.7 1072.58 545.836 1072.58C541.967 1072.58 541.062 1067.45 541.062 1045.52ZM576.072 1040.75V1008.92H587.211C594.991 1008.92 598.351 1010.36 598.351 1013.69C598.351 1016.35 595.522 1018.47 591.985 1018.47C587.034 1018.47 585.62 1020.59 585.62 1028.02C585.62 1035.44 587.034 1037.57 591.985 1037.57C595.486 1037.57 598.351 1039 598.351 1040.75C598.351 1042.5 595.486 1043.93 591.985 1043.93C587.034 1043.93 585.62 1046.05 585.62 1053.48C585.62 1060.91 587.034 1063.03 591.985 1063.03C595.522 1063.03 598.351 1065.15 598.351 1067.8C598.351 1071.14 594.991 1072.58 587.211 1072.58H576.072V1040.75ZM614.264 1040.75C614.264 1011.32 614.731 1008.92 620.47 1008.92C625.518 1008.92 627.379 1012.5 630.451 1028.11C632.528 1038.67 635.106 1046.45 636.181 1045.4C637.255 1044.35 639.593 1036.07 641.374 1027C644.012 1013.57 645.934 1010.32 651.718 1009.5C658.666 1008.5 658.822 1009.19 658.822 1040.53C658.822 1066.89 657.976 1072.58 654.048 1072.58C650.662 1072.58 649.26 1069.11 649.225 1060.64C649.189 1051.76 648.386 1049.93 646.091 1053.48C644.395 1056.1 642.984 1061.48 642.957 1065.41C642.924 1070.36 641.001 1072.58 636.731 1072.58C632.059 1072.58 629.814 1069.28 627.523 1059.05L624.494 1045.52L624.153 1059.05C623.908 1068.8 622.48 1072.58 619.038 1072.58C615.113 1072.58 614.264 1066.92 614.264 1040.75ZM677.919 1040.75V1008.92H688.844C701.799 1008.92 702.772 1011.2 703.002 1042.14C703.187 1067 700.27 1072.58 687.077 1072.58H677.919V1040.75ZM693.832 1053.48C693.832 1048.23 692.4 1043.93 690.649 1043.93C688.899 1043.93 687.467 1048.23 687.467 1053.48C687.467 1058.73 688.899 1063.03 690.649 1063.03C692.4 1063.03 693.832 1058.73 693.832 1053.48ZM693.832 1024.65C693.832 1021.25 692.4 1018.47 690.649 1018.47C688.899 1018.47 687.467 1022.13 687.467 1026.61C687.467 1031.23 688.844 1033.91 690.649 1032.79C692.4 1031.71 693.832 1028.04 693.832 1024.65ZM719.294 1040.75V1008.92H730.044C744.547 1008.92 749.062 1015.14 746.737 1031.94C744.297 1049.56 744.295 1050.06 746.656 1062.23C748.185 1070.12 747.551 1072.58 743.987 1072.58C741.415 1072.58 737.819 1067.92 735.994 1062.23L732.675 1051.89L732.351 1062.23C732.095 1070.34 730.653 1072.58 725.66 1072.58C719.719 1072.58 719.294 1070.45 719.294 1040.75ZM738.341 1027.22C738.369 1022.41 736.958 1018.47 735.208 1018.47C733.457 1018.47 732.047 1024.56 732.073 1032C732.11 1041.9 732.948 1044.24 735.208 1040.75C736.904 1038.12 738.315 1032.04 738.341 1027.22ZM833.872 1040.75V1008.92H844.375C859.9 1008.92 862.516 1013.51 862.516 1040.75C862.516 1067.99 859.9 1072.58 844.375 1072.58H833.872V1040.75ZM852.968 1040.75C852.968 1028.02 851.604 1018.47 849.785 1018.47C847.967 1018.47 846.602 1028.02 846.602 1040.75C846.602 1053.48 847.967 1063.03 849.785 1063.03C851.604 1063.03 852.968 1053.48 852.968 1040.75ZM878.43 1040.75V1008.92H889.569C897.349 1008.92 900.709 1010.36 900.709 1013.69C900.709 1016.32 898.56 1018.47 895.935 1018.47C892.752 1018.47 891.161 1021.65 891.161 1028.02C891.161 1034.38 892.752 1037.57 895.935 1037.57C898.56 1037.57 900.709 1039 900.709 1040.75C900.709 1042.5 898.56 1043.93 895.935 1043.93C892.752 1043.93 891.161 1047.11 891.161 1053.48C891.161 1059.84 892.752 1063.03 895.935 1063.03C898.56 1063.03 900.709 1065.18 900.709 1067.8C900.709 1071.14 897.349 1072.58 889.569 1072.58H878.43V1040.75ZM954.766 1049.5C954.73 1033.8 953.759 1027.94 951.716 1031.17C949.432 1034.79 947.828 1035.03 945.008 1032.21C940.006 1027.21 952.876 1008.92 961.397 1008.92C967.064 1008.92 967.546 1011.42 967.546 1040.75C967.546 1070.45 967.122 1072.58 961.18 1072.58C955.405 1072.58 954.81 1070.44 954.766 1049.5ZM232.338 765.443V547.427H668.37H1104.4V765.443V983.459H668.37H232.338V765.443ZM687.467 817.958V687.467H725.659H763.852V671.553V655.64H725.659H687.467V619.038V582.437H671.553H655.64V619.038V655.64H617.447H579.254V671.553V687.467H617.447H655.64V817.958V948.449H671.553H687.467V817.958ZM336.017 909.675C323.141 894.632 320.127 883.023 322.082 855.999C323.708 833.518 329.073 825.119 353.944 806.123C363.612 798.738 373.321 788.355 375.519 783.048C379.515 773.402 379.52 773.4 405.938 773.4C430.009 773.4 433.271 772.634 442.586 764.796C455.29 754.107 461.494 739.732 461.494 720.987C461.494 707.917 460.783 706.563 453.92 706.563C446.933 706.563 446.238 708.053 444.957 725.756C442.945 753.567 440.053 755.496 396.876 757.818C372.927 759.107 357.729 761.497 350.838 765.061C342.356 769.447 340.551 769.591 340.551 765.879C340.551 763.3 345.069 760.53 351.133 759.393C361.744 757.402 374.857 746.031 381.537 733.03C385.841 724.653 386.22 710.808 382.213 708.332C376.088 704.546 369.195 710.607 369.195 719.779C369.195 732.768 356.585 744.756 342.923 744.756C328.26 744.756 324.637 749.631 324.637 769.363C324.637 789.767 329.526 793.127 346.536 784.412C364.574 775.171 365.293 775.482 351.929 786.744C311.356 820.932 305.593 830.857 305.559 866.597C305.536 889.768 310.607 901.827 327.784 919.449C339.484 931.453 341.812 932.674 344.35 928.138C346.583 924.148 344.551 919.645 336.017 909.675ZM1008.35 915.194C1035.45 884.327 1028.39 823.263 994.757 797.606C976.312 783.538 981.02 771.211 999.935 784.047C1008.47 789.842 1012.3 790.75 1017.82 788.289C1023.89 785.581 1024.83 782.662 1024.83 766.66C1024.83 746.57 1020.79 741.573 1004.53 741.573C992.491 741.573 979.951 729.197 979.603 716.968C979.4 709.777 977.471 706.101 973.189 704.742C965.237 702.219 963.334 704.427 963.657 715.798C964.218 735.529 978.98 752.294 999.387 756.375C1005.8 757.657 1008.92 760.185 1008.92 764.087C1008.92 769.387 1008.02 769.522 998.577 765.643C992.888 763.306 983.579 760.401 977.89 759.188L967.546 756.981V774.983C967.546 794.048 967.169 793.444 994.073 817.421C1015.58 836.588 1013.79 890.082 990.834 914.045C985.81 919.29 983.391 924.584 984.59 927.709C987.167 934.426 995.163 930.215 1008.35 915.194ZM996.19 879.435C996.19 866.509 984.263 844.545 971.554 834.07C949.486 815.88 924.329 814.985 868.946 830.42C838.127 839.009 834.732 838.841 813.524 827.685C796.783 818.879 795.526 818.663 792.615 824.102C788.858 831.122 795.068 837.647 812.403 844.89C829.172 851.897 850.747 850.965 889.835 841.545C933.39 831.049 947.897 832.57 964.727 849.4C971.625 856.298 977.974 866.697 980.093 874.567C982.779 884.541 985.305 887.978 989.947 887.978C994.599 887.978 996.19 885.8 996.19 879.435ZM361.092 875.914C366.359 851.934 388.745 834.093 413.753 833.946C419.88 833.91 439.664 837.459 457.718 841.833C505.512 853.411 528.708 851.632 553.326 834.496C560.701 829.363 552.166 817.958 540.95 817.958C530.91 817.958 518.783 808.381 518.783 800.453C518.783 797.483 515.777 795.679 510.826 795.679C505.323 795.679 502.869 797.424 502.869 801.336C502.869 807.672 511.419 821.386 517.795 825.277C534.253 835.322 501.27 836.83 465.207 827.682C412.062 814.202 391.099 816.052 368.809 836.191C354.855 848.797 348.867 858.607 345.455 874.451C343.408 883.957 343.872 884.795 351.184 884.795C357.305 884.795 359.591 882.745 361.092 875.914ZM799.157 810.555C816.221 801.548 831.098 782.774 839.979 759.039C847.521 738.88 856.151 693.161 856.151 673.364C856.151 658.073 860.406 652.457 871.993 652.457C884.386 652.457 893.767 644.138 897.654 629.702C900.313 619.826 903.375 615.888 910.476 613.207C922.994 608.482 923.222 598.351 910.812 598.351C900.228 598.351 890.358 607.791 883.313 624.651C879.881 632.865 876.34 636.543 871.864 636.543C861.347 636.543 846.562 645.785 843.283 654.408C841.608 658.814 840.237 669.361 840.237 677.846C840.237 719.208 821.587 773.973 801.843 790.586C792.133 798.757 774.405 805.177 761.465 805.209C756.432 805.218 754.304 807.119 754.304 811.593C754.304 817.082 756.426 817.958 769.717 817.958C779.708 817.958 790.064 815.354 799.157 810.555ZM547.427 792.757C547.427 784.899 542.808 779.765 535.738 779.765C524.63 779.765 515.773 774.27 512.344 765.25C509.039 756.557 496.504 754.317 496.504 762.419C496.504 771.301 505.956 785.874 514.844 790.697C524.464 795.916 547.427 797.368 547.427 792.757ZM536.628 749.269C535.566 746.5 534.696 742.92 534.696 741.312C534.696 739.705 529.787 738.39 523.788 738.39C507.8 738.39 499.707 726.791 499.617 703.747C499.531 681.823 490.731 660.982 475.677 647.049C469.196 641.051 464.677 633.823 464.677 629.457C464.677 619.675 456.917 608.987 445.545 603.106C432.01 596.107 426.484 597.035 426.484 606.307C426.484 614.071 425.916 614.264 403.168 614.264C382.487 614.264 379.018 615.153 372.465 622.129C363.711 631.447 351.808 635.767 326.078 638.967C309.557 641.022 306.999 642.262 306.092 648.657C305.52 652.69 306.77 658.059 308.869 660.589C311.571 663.844 311.642 665.188 309.113 665.188C307.07 665.188 305.541 670.614 305.541 677.868C305.541 687.294 307.854 693.138 314.554 700.637C322.17 709.161 326.344 710.955 341.469 712.209C358.099 713.588 360.06 713.005 369.057 704.008C374.385 698.68 378.743 692.063 378.743 689.303C378.743 682.234 368.476 683.059 361.977 690.649C355.181 698.586 335.519 699.208 327.275 691.747C320.038 685.198 319.214 670.893 326.228 673.585C329.72 674.925 331.002 673.187 331.002 667.12C331.002 662.556 329.57 658.822 327.82 658.822C326.069 658.822 324.637 657.39 324.637 655.64C324.637 653.889 329.436 652.457 335.302 652.457C350.093 652.457 366.103 646.614 375.735 637.702C382.598 631.351 387.187 630.178 405.175 630.178C425.783 630.178 426.484 629.916 426.484 622.221C426.484 616.609 428.214 614.264 432.356 614.264C440.746 614.264 448.734 624.349 450.896 637.671C452.175 645.553 455.972 651.589 463.043 656.983C476.136 666.969 483.768 683.043 483.791 700.679C483.835 734.937 498.407 754.304 524.142 754.304C535.982 754.304 538.215 753.403 536.628 749.269ZM335.777 735.807C349.27 733.949 351.851 732.482 352.746 726.159C353.77 718.925 353.246 718.748 335.241 720.248C325.033 721.098 312.768 722.825 307.987 724.086C294.771 727.571 283.654 723.555 281.374 714.471C279.922 708.687 277.252 706.563 271.432 706.563C264.377 706.563 263.708 707.555 265.525 715.315C266.653 720.129 272.025 728.169 277.464 733.182C288.178 743.056 284.377 742.884 335.777 735.807ZM1062.24 731.229C1065.91 727.29 1069.9 720.129 1071.09 715.315C1072.92 707.961 1072.25 706.563 1066.9 706.563C1062.81 706.563 1059.84 709.333 1058.59 714.308C1055.89 725.07 1046.83 726.949 1028.69 720.509C1011.27 714.32 1002.56 716.003 1002.56 725.559C1002.56 730.722 1004.64 732.035 1012.9 732.073C1018.59 732.1 1025.39 733.51 1028.02 735.207C1036.95 740.979 1055.11 738.867 1062.24 731.229ZM1025.09 707.499C1030.14 704.512 1036.45 697.492 1039.11 691.9C1044.54 680.439 1045.53 665.188 1040.83 665.188C1038.83 665.188 1038.87 662.183 1040.92 656.786C1045.78 643.993 1037.41 636.543 1018.18 636.543C1000.04 636.543 989.015 632.741 976.407 622.131C968.3 615.31 963.917 614.264 943.431 614.264C920.352 614.264 919.805 614.448 919.805 622.221C919.805 629.905 920.525 630.178 940.829 630.178C958.523 630.178 963.327 631.418 971.163 638.012C981.575 646.773 998.548 652.362 1015.29 652.54C1025.23 652.647 1025.83 653.112 1020.86 656.887C1013.23 662.674 1013.72 671.553 1021.65 671.553C1025.9 671.553 1028.02 673.675 1028.02 677.919C1028.02 686.116 1017.12 697.015 1008.92 697.015C1004.25 697.015 1002.56 699.137 1002.56 704.972C1002.56 714.655 1011.31 715.637 1025.09 707.499ZM402.614 658.822C407.865 655.344 415.384 652.489 419.323 652.478C424.355 652.46 426.484 650.565 426.484 646.091C426.484 640.682 424.362 639.726 412.35 639.726C404.576 639.726 397.33 641.158 396.248 642.909C395.166 644.659 389.353 646.091 383.329 646.091C370.211 646.091 369.469 649.706 380.764 658.591C390.992 666.637 390.817 666.635 402.614 658.822ZM964.908 659.92C973.972 651.718 972.432 644.956 961.976 647.039C956.833 648.063 950.676 646.914 947.046 644.254C943.648 641.764 936.128 639.726 930.336 639.726C921.225 639.726 919.805 640.799 919.805 647.683C919.805 654.443 921.275 655.64 929.581 655.64C934.957 655.64 941.504 657.788 944.13 660.414C950.355 666.638 957.677 666.465 964.908 659.92ZM1161.69 772.517C1161.69 586.749 1162.28 560.73 1166.65 554.501C1169.37 550.61 1173.67 547.427 1176.19 547.427C1181.41 547.427 1182.44 555.579 1177.61 558.567C1175.85 559.649 1174.42 563.378 1174.42 566.856C1174.42 572.276 1175.91 572.898 1184.87 571.218C1192.85 569.72 1196.63 570.717 1200.92 575.455C1206.19 581.277 1206.2 581.777 1201.07 583.743C1198.07 584.894 1194.67 584.3 1193.51 582.422C1189.49 575.926 1174.42 584.544 1174.42 593.335C1174.42 601.084 1174.6 601.136 1185.46 596.597C1198.89 590.987 1210.05 590.689 1215.16 595.805C1221.49 602.137 1219.48 605.532 1210.7 603.329C1205.78 602.094 1196.74 603.421 1188.42 606.599C1177.38 610.816 1174.42 613.523 1174.42 619.403V626.86L1196.7 618.603C1217.85 610.762 1219.38 610.612 1227.04 615.628C1236.72 621.976 1234.18 628.306 1223.07 625.516C1218.37 624.338 1206.78 626.295 1194.77 630.291C1177.44 636.059 1174.42 638.174 1174.42 644.558V652.053L1202.07 642.707C1234.04 631.901 1234.83 631.812 1243.04 638.074C1248.3 642.089 1248.52 643.242 1244.55 645.849C1241.67 647.736 1238.52 647.778 1236.32 645.958C1234.05 644.071 1222.24 646.536 1203.59 652.79C1178 661.373 1174.42 663.481 1174.42 669.966V677.358L1208.81 665.997C1244.4 654.24 1260.36 653.622 1260.36 664.002C1260.36 667.865 1258.39 668.568 1252.05 666.977C1246.47 665.577 1232.37 668.685 1209.09 676.443C1177.73 686.889 1174.42 688.729 1174.42 695.687C1174.42 699.918 1174.85 703.38 1175.37 703.38C1175.89 703.38 1193.36 697.652 1214.21 690.65C1254.47 677.121 1266.96 675.314 1272.67 682.19C1277.42 687.916 1273.79 690.949 1264.87 688.709C1260.51 687.615 1240.94 692.383 1216.01 700.611C1178.86 712.871 1174.42 715.111 1174.42 721.59C1174.42 725.578 1175.56 728.842 1176.94 728.842C1178.33 728.842 1198.74 722.354 1222.3 714.423C1266.19 699.648 1287.41 697.086 1287.41 706.563C1287.41 709.912 1284.71 711.05 1278.37 710.376C1273.39 709.847 1255.49 713.982 1238.58 719.564C1181.37 738.456 1174.42 741.552 1174.42 748.167C1174.42 751.542 1175.55 754.304 1176.93 754.304C1178.31 754.304 1200.6 747.214 1226.47 738.548C1263.3 726.207 1275.18 723.43 1281.25 725.738C1285.51 727.359 1289 730.933 1289 733.682C1289 737.578 1286.72 738.27 1278.66 736.824C1271.12 735.473 1255.77 739.181 1222.16 750.465C1179.29 764.863 1175.94 766.559 1175.01 774.38L1174.01 782.798L1220.48 766.96C1268.98 750.426 1278.84 748.596 1285.18 754.941C1291.52 761.28 1289.5 764.667 1280.69 762.458C1274.92 761.01 1257.44 765.356 1223.41 776.699C1178.78 791.574 1174.42 793.689 1174.42 800.491C1174.42 807.951 1174.46 807.945 1221.25 792.27C1270.51 775.766 1278.97 774.195 1285.18 780.402C1291.52 786.741 1289.5 790.129 1280.69 787.919C1274.92 786.471 1257.44 790.818 1223.41 802.161C1178.78 817.035 1174.42 819.15 1174.42 825.953C1174.42 833.413 1174.46 833.407 1221.25 817.732C1270.51 801.228 1278.97 799.657 1285.18 805.864C1291.52 812.203 1289.5 815.591 1280.69 813.381C1274.92 811.933 1257.44 816.279 1223.41 827.623C1178.78 842.497 1174.42 844.612 1174.42 851.414C1174.42 858.875 1174.46 858.869 1221.25 843.193C1270.51 826.689 1278.97 825.119 1285.18 831.326C1291.52 837.665 1289.5 841.053 1280.69 838.843C1274.92 837.395 1257.44 841.741 1223.41 853.084C1178.78 867.959 1174.42 870.074 1174.42 876.876C1174.42 884.337 1174.46 884.33 1221.25 868.655C1272.05 851.636 1279.7 850.375 1286.02 857.985C1289.46 862.136 1289.41 863.477 1285.72 865.76C1283.16 867.34 1279.76 867.273 1277.74 865.604C1275.52 863.755 1255.99 868.743 1224.33 879.249C1179.43 894.147 1174.42 896.534 1174.42 903.033C1174.42 907.006 1175.56 910.257 1176.96 910.257C1178.35 910.257 1196.55 904.528 1217.39 897.526C1259.72 883.304 1262.93 882.831 1271.68 889.509C1276.81 893.419 1277.09 894.726 1273.37 897.174C1270.6 898.996 1266.95 898.966 1263.82 897.102C1260.22 894.947 1246.84 898.088 1217.39 907.998C1179.38 920.789 1175.93 922.6 1175.02 930.245L1174.03 938.567L1212.51 925.696C1249.26 913.402 1251.34 913.06 1258.95 918.049C1268.7 924.437 1265.93 930.647 1254.59 927.803C1249.03 926.408 1234.61 929.693 1210.38 937.874L1174.42 950.016V966.74C1174.42 981.342 1173.61 983.464 1168.06 983.464C1161.76 983.464 1161.69 981.337 1161.69 772.517ZM71.9053 973.365C65.9996 964.934 64.4756 913.44 70.1317 913.44C72.4029 913.44 72.4029 911.527 70.1317 907.283C65.7773 899.147 65.7773 849.785 70.1317 849.785C72.4029 849.785 72.4029 847.873 70.1317 843.629C65.9054 835.732 65.8215 790.317 70.0284 787.717C72.1616 786.399 72.1616 783.768 70.0284 779.782C68.2731 776.502 66.8371 754.708 66.8371 731.351C66.8371 697.24 65.8157 687.425 61.647 681.473C56.129 673.595 38.9627 665.022 29.5423 665.439C26.2079 665.587 25.5099 666.352 27.8487 667.295C34.3499 669.919 32.368 677.919 25.2169 677.919C17.462 677.919 0 661.558 0 654.293C0 648.752 8.03175 647.428 11.1395 652.457C12.2214 654.207 19.8251 655.642 28.0366 655.645C57.8587 655.654 75.6392 671.752 79.538 702.271C81.4258 717.048 82.002 711.609 82.3333 675.884C82.8084 624.657 80.8239 619.37 59.5129 615.084C45.3196 612.23 42.5231 606.727 54.5573 605.334C61.3736 604.544 62.6323 603.087 61.2068 597.636C59.9266 592.74 60.6696 591.372 63.9384 592.603C80.5059 598.844 81.8637 598.628 85.8044 589.114C90.3555 578.127 97.4082 571.327 107.417 568.277C118.076 565.028 116.427 572.474 104.234 582.647L93.8901 591.277L93.5286 656.081C93.2768 701.221 93.807 712.193 95.276 692.241C96.4359 676.486 98.4997 661.201 99.8621 658.272C102.319 652.992 116.664 644.953 128.9 642C133.031 641.004 131.634 640.335 124.922 640.095C117.633 639.835 114.578 638.193 114.578 634.538C114.578 630.252 117.134 629.638 129.275 631.007C148.059 633.124 158.966 643.488 161.384 661.519C162.957 673.249 162.432 674.736 156.717 674.736C152.594 674.736 149.596 672.018 148.382 667.182C144.639 652.268 114.833 649.341 109.454 663.359C108.477 665.907 107.439 737.898 107.149 823.339L106.621 978.685L91.7973 979.643C79.3739 980.446 76.1529 979.429 71.9053 973.365ZM95.4815 946.755C95.4815 924.805 94.8774 922.558 88.3204 920.122C81.3701 917.54 81.1314 918.12 80.2141 939.819C79.0981 966.216 80.3832 970.728 89.0162 970.728C94.9426 970.728 95.4815 968.73 95.4815 946.755ZM94.8145 884.355C93.9745 860.816 93.2368 858.212 86.729 855.813C79.6622 853.208 79.5679 853.524 79.5679 879.858C79.5679 906.351 80.7645 909.341 91.6318 910.006C94.7409 910.196 95.5143 903.962 94.8145 884.355ZM94.8145 820.345C93.9527 795.865 93.4054 794.019 86.729 793.071C79.821 792.09 79.5679 792.943 79.5679 817.206C79.5679 844.03 80.4611 846.603 89.7752 846.603C95.1978 846.603 95.655 844.22 94.8145 820.345ZM94.8145 756.691C93.9527 732.211 93.4054 730.364 86.729 729.416C79.821 728.435 79.5679 729.288 79.5679 753.552C79.5679 780.376 80.4611 782.948 89.7752 782.948C95.1978 782.948 95.655 780.566 94.8145 756.691ZM23.8704 941.544C20.3694 939.514 16.4984 936.324 15.2682 934.455C14.0381 932.585 13.0691 876.757 13.115 810.391C13.2059 679.107 12.9284 681.101 31.1065 681.101C51.0121 681.101 50.7979 679.551 50.029 818.1L49.3321 943.675L39.784 944.455C34.5325 944.883 27.3714 943.573 23.8704 941.544ZM40.7135 907.87C39.8533 885.043 39.2501 883.128 32.6228 882.187C25.7041 881.204 25.4617 882.039 25.4617 906.853C25.4617 932.24 25.5551 932.536 33.5524 932.536C41.6021 932.536 41.6384 932.411 40.7135 907.87ZM40.7084 845.807C39.8465 821.327 39.2993 819.481 32.6229 818.532C25.7094 817.55 25.4618 818.394 25.4618 842.933C25.4618 868.117 26.73 871.153 37.5257 871.813C40.638 872.003 41.4089 865.705 40.7084 845.807ZM40.7084 782.153C39.8465 757.672 39.2992 755.826 32.6228 754.878C25.7148 753.897 25.4617 754.75 25.4617 779.014C25.4617 805.838 26.3549 808.41 35.669 808.41C41.0916 808.41 41.5489 806.027 40.7084 782.153ZM41.3753 721.522C41.3753 698.62 38.3348 690.649 29.5993 690.649C26.5565 690.649 25.4617 697.246 25.4617 715.581C25.4617 742.11 26.3757 744.756 35.5403 744.756C40.6656 744.756 41.3753 741.93 41.3753 721.522ZM131.305 940.386C124.34 935.508 124.337 935.438 124.353 813.02C124.362 745.653 125.184 688.412 126.18 685.818C128.859 678.835 148.306 679.819 155.803 687.317C161.756 693.269 162.016 698.694 161.935 815.377C161.879 895.594 160.71 938.596 158.512 941.244C153.943 946.749 139.751 946.302 131.305 940.386ZM149.588 907.445C149.588 883.209 149.317 882.303 141.631 880.833C133.701 879.318 133.674 879.396 133.674 903.802C133.674 929.886 134.604 932.536 143.753 932.536C148.917 932.536 149.588 929.654 149.588 907.445ZM148.921 845.807C148.059 821.327 147.512 819.481 140.835 818.532C133.965 817.557 133.674 818.469 133.674 840.971C133.674 864.192 136.688 872.064 145.579 872.064C148.875 872.064 149.635 866.096 148.921 845.807ZM148.921 782.153C148.059 757.672 147.512 755.826 140.835 754.878C133.922 753.896 133.674 754.74 133.674 779.279C133.674 804.462 134.942 807.498 145.738 808.159C148.85 808.349 149.621 802.05 148.921 782.153ZM148.921 718.498C148.059 694.018 147.512 692.172 140.835 691.224C133.927 690.243 133.674 691.096 133.674 715.359C133.674 742.183 134.567 744.756 143.881 744.756C149.304 744.756 149.761 742.373 148.921 718.498ZM41.3753 638.315C41.3753 628.164 49.9117 617.447 57.997 617.447C62.2501 617.447 60.7005 626.026 55.6975 630.178C53.0718 632.357 50.9234 637.545 50.9234 641.707C50.9234 646.311 49.0543 649.274 46.1494 649.274C42.8301 649.274 41.3753 645.935 41.3753 638.315ZM132.878 617.786C126.426 611.244 125.704 605.782 131.055 603.998C136.356 602.231 131.334 595.331 122.225 591.868C118.019 590.268 114.578 586.776 114.578 584.107C114.578 578.154 115.288 578.136 128.746 583.759C141.533 589.102 146.405 597.021 146.405 612.464C146.405 625.039 141.813 626.846 132.878 617.786ZM150.067 595.386C150.678 579.751 150.033 569.01 148.634 571.516C146.225 575.828 136.857 578.06 136.857 574.322C136.857 568.211 147.251 554.429 154.273 551.23C166.426 545.692 184.598 546.274 184.598 552.201C184.598 554.827 182.449 556.975 179.823 556.975C177.198 556.975 172.185 559.84 168.684 563.341C163.317 568.708 162.318 573.95 162.318 596.759C162.318 622.118 161.9 623.812 155.636 623.812C149.264 623.812 149.006 622.493 150.067 595.386ZM355.745 486.682C354.068 475.255 352.847 475.913 401.653 461.933C475.974 440.643 529.353 431.597 613.469 426.036C720.573 418.956 833.275 432.184 946.062 465.073C979.081 474.701 980.277 475.362 980.277 483.997C980.277 488.919 978.891 493.802 977.196 494.849C975.502 495.896 960.106 492.43 942.982 487.146C774.206 435.071 602.934 431.207 434.467 475.673C411.696 481.683 386.798 488.829 379.139 491.552C359.851 498.41 357.391 497.898 355.745 486.682ZM331.336 411.623C329.358 407.281 328.489 402.514 329.406 401.03C330.323 399.547 341.853 395.133 355.029 391.221C368.205 387.31 379.753 382.866 380.693 381.347C382.71 378.083 358.275 302.949 349.529 285.524C341.646 269.817 326.97 261.01 308.655 260.995L294.265 260.983L275.816 205.332C265.669 174.723 258.144 148.423 259.093 146.888C260.936 143.906 330.701 122.698 332.434 124.592C333 125.211 351.714 164.387 374.02 211.651C396.327 258.914 421.911 312.622 430.875 331.003L447.172 364.421L448.002 231.595L448.833 98.7681L455.959 97.1738C473.685 93.2079 538.016 85.7719 570.797 83.8997C600.113 82.2253 607.17 82.6699 608.482 86.2736C609.369 88.7123 622.837 146.099 638.41 213.8C653.983 281.501 667.453 336.179 668.343 335.308C669.234 334.436 682.945 277.612 698.814 209.033L727.665 84.3421L760.154 84.8648C795.668 85.4361 878.455 94.7182 882.632 98.597C884.068 99.9306 886.084 159.989 887.113 232.06C888.141 304.131 889.981 361.964 891.202 360.577C892.422 359.19 902.108 339.437 912.725 316.68C951.536 233.496 1002.49 126.312 1003.89 124.911C1005.62 123.188 1073.14 142.822 1076.53 146.033C1077.83 147.263 1070.55 173.272 1060.35 203.831L1041.81 259.391L1026.16 261.104C1009.04 262.977 1000.67 266.67 992.106 276.134C987.131 281.631 954.808 371.857 954.819 380.215C954.822 382.031 963.214 385.983 973.469 388.996C1008.73 399.356 1009.09 399.593 1005.49 409.922L1002.3 419.071L962.468 407.052C779.86 351.951 589.821 348.873 405.378 398.029C385.893 403.222 362.072 410.181 352.442 413.495L334.933 419.518L331.336 411.623ZM559.328 348.958C580.753 346.705 599.159 343.985 600.231 342.914C603.918 339.227 591.628 243.814 585.988 232.338C582.336 224.908 575.63 218.748 565.85 213.839C546.213 203.983 531.109 206.661 514.804 222.891C503.819 233.826 502.869 236.205 502.869 252.777C502.869 270.209 507.526 321.831 511.002 342.938C511.939 348.627 514.431 353.23 516.54 353.168C518.649 353.105 537.904 351.211 559.328 348.958ZM825.357 341.346C830.158 310.33 834.745 248.949 832.83 241.336C824.898 209.794 779.712 197.052 758.473 220.367C747.036 232.921 745.254 239.646 739.753 291.004C733.657 347.909 733.241 346.592 757.486 347.146C765.364 347.326 778.97 348.589 787.722 349.952C821.131 355.156 823.297 354.661 825.357 341.346ZM240.648 99.93C235.742 84.8655 232.939 71.4523 234.42 70.1229C237.733 67.1488 257.301 60.4716 262.704 60.4716C264.879 60.4716 267.582 64.1543 268.712 68.6554C270.55 75.9785 271.842 76.6053 280.992 74.6154C303.227 69.78 306.205 67.5573 303.985 57.453C302.035 48.574 302.626 47.9229 315.671 44.581C323.228 42.645 331.162 40.4756 333.303 39.76C335.655 38.9736 338.568 43.7568 340.668 51.8523C342.578 59.2187 345.473 70.2584 347.102 76.3852C352.369 96.1986 351.606 97.4128 330.207 103.271C319.266 106.265 298.857 112.237 284.853 116.54C270.849 120.843 257.181 125.029 254.48 125.842C250.734 126.969 247.449 120.814 240.648 99.93ZM1063.03 120.6C1053.4 117.181 1031.92 110.688 1015.29 106.172C998.657 101.657 984.775 97.7246 984.438 97.4347C984.1 97.145 987.085 84.0549 991.07 68.3459C998.985 37.1407 997.346 38.3767 1022.24 44.8319C1033.25 47.6893 1033.86 48.4954 1032.28 58.2067C1030.66 68.2077 1031.08 68.6674 1045.27 72.463C1065.1 77.767 1065.42 77.6919 1067.74 67.0969L1069.78 57.8087L1084.71 62.7459C1092.91 65.4613 1100.7 68.6368 1102.01 69.8024C1104.94 72.4041 1087.61 125.046 1083.49 126.077C1081.86 126.485 1072.66 124.02 1063.03 120.6ZM415.814 53.8575C412.744 37.8424 410.666 24.3119 411.197 23.7898C411.728 23.2677 419.753 21.4643 429.032 19.7823L445.902 16.7241L447.73 25.867C449.676 35.5984 451.92 36.2592 471.838 32.9671C482.76 31.1617 483.773 30.1214 483.773 20.7107V10.4272L505.256 8.31294C517.072 7.15011 533.543 5.33559 541.857 4.28066L556.975 2.36264V12.4797V22.5967L575.276 21.6421C593.369 20.6985 593.588 20.5703 594.574 10.3438C595.565 0.0645542 595.679 0 612.875 0H630.178V10.6726C630.178 16.5426 631.067 29.8508 632.153 40.2466L634.129 59.1479L578.693 63.044C530.822 66.4086 455.541 75.5797 429.51 81.2183C421.564 82.9395 421.28 82.3734 415.814 53.8575ZM884.795 77.6912C851.713 71.6338 785.386 64.2663 740.777 61.6939L703.38 59.5374V29.7687V0H722.477H741.573V11.1395V22.279H759.157C776.287 22.279 776.793 22.0229 778.721 12.3828C780.663 2.67253 780.976 2.5215 795.351 4.34268C803.409 5.36349 819.822 7.16578 831.824 8.34774L853.647 10.4967L851.977 20.7878C850.389 30.5753 850.878 31.1734 861.981 33.0094C883.86 36.6272 887.978 35.7135 887.978 27.2409C887.978 17.071 889.629 16.5185 909.757 19.9551C925.049 22.5662 926.58 23.5506 924.956 29.7299C923.964 33.5091 921.403 46.9848 919.266 59.6759C917.129 72.367 913.87 82.5956 912.023 82.4063C910.177 82.2169 897.924 80.0951 884.795 77.6912Z" fill="white"/>
</svg>
